<?xml version="1.0" standalone="no"?>
<!DOCTYPE svg PUBLIC "-//W3C//DTD SVG 20010904//EN"
 "http://www.w3.org/TR/2001/REC-SVG-20010904/DTD/svg10.dtd">
<svg version="1.0" xmlns="http://www.w3.org/2000/svg"
 width="224.000000pt" height="224.000000pt" viewBox="0 0 224.000000 224.000000"
 preserveAspectRatio="xMidYMid meet">

<g transform="translate(0.000000,224.000000) scale(0.100000,-0.100000)"
fill="#000000" stroke="none">
<path d="M1000 2233 c-87 -9 -202 -38 -284 -70 -301 -119 -520 -338 -639 -639
-53 -135 -71 -235 -71 -404 0 -169 18 -269 71 -404 145 -365 445 -615 838
-698 77 -16 333 -16 410 0 279 59 525 211 685 423 74 99 162 276 190 384 49
189 49 402 0 590 -28 108 -116 285 -190 383 -231 307 -625 476 -1010 435z
m153 -503 c19 0 698 -683 713 -717 21 -49 2 -83 -103 -185 -137 -133 -113
-142 -405 149 l-238 237 -238 -237 c-293 -292 -268 -283 -408 -145 -104 102
-125 139 -100 185 21 39 685 700 716 712 14 5 31 8 38 5 8 -2 19 -4 25 -4z"/>
</g>
</svg>
